<mxfile host="app.diagrams.net" modified="2023-10-03T08:03:49.291Z" agent="Mozilla/5.0 (Windows NT 10.0; Win64; x64) AppleWebKit/537.36 (KHTML, like Gecko) Chrome/117.0.0.0 Safari/537.36 Edg/117.0.2045.47" etag="QMUGw6BqkIkiKVsfmc0_" version="22.0.1" type="github">
  <diagram id="R2lEEEUBdFMjLlhIrx00" name="Page-1">
    <mxGraphModel dx="995" dy="567" grid="1" gridSize="10" guides="1" tooltips="1" connect="1" arrows="1" fold="1" page="1" pageScale="1" pageWidth="850" pageHeight="1100" math="0" shadow="0" extFonts="Permanent Marker^https://fonts.googleapis.com/css?family=Permanent+Marker">
      <root>
        <mxCell id="0" />
        <mxCell id="1" parent="0" />
        <mxCell id="aesW-jCNYoVFo7ENcaNy-1" value="nama depan" style="ellipse;whiteSpace=wrap;html=1;" vertex="1" parent="1">
          <mxGeometry x="10" y="90" width="110" height="50" as="geometry" />
        </mxCell>
        <mxCell id="aesW-jCNYoVFo7ENcaNy-2" value="tanggal lahir" style="ellipse;whiteSpace=wrap;html=1;" vertex="1" parent="1">
          <mxGeometry x="120" y="330" width="80" height="50" as="geometry" />
        </mxCell>
        <mxCell id="aesW-jCNYoVFo7ENcaNy-3" value="nama belakang" style="ellipse;whiteSpace=wrap;html=1;" vertex="1" parent="1">
          <mxGeometry x="170" y="10" width="70" height="45" as="geometry" />
        </mxCell>
        <mxCell id="aesW-jCNYoVFo7ENcaNy-4" value="jenis kelamin" style="ellipse;whiteSpace=wrap;html=1;" vertex="1" parent="1">
          <mxGeometry x="20" y="170" width="70" height="50" as="geometry" />
        </mxCell>
        <mxCell id="aesW-jCNYoVFo7ENcaNy-5" value="alamat" style="ellipse;whiteSpace=wrap;html=1;" vertex="1" parent="1">
          <mxGeometry x="80" y="10" width="70" height="50" as="geometry" />
        </mxCell>
        <mxCell id="aesW-jCNYoVFo7ENcaNy-6" value="pembeli" style="rounded=0;whiteSpace=wrap;html=1;" vertex="1" parent="1">
          <mxGeometry x="180" y="140" width="80" height="60" as="geometry" />
        </mxCell>
        <mxCell id="aesW-jCNYoVFo7ENcaNy-8" value="" style="endArrow=none;html=1;rounded=0;entryX=0.375;entryY=0.917;entryDx=0;entryDy=0;entryPerimeter=0;" edge="1" parent="1" target="aesW-jCNYoVFo7ENcaNy-3">
          <mxGeometry width="50" height="50" relative="1" as="geometry">
            <mxPoint x="250" y="140" as="sourcePoint" />
            <mxPoint x="330" y="120" as="targetPoint" />
          </mxGeometry>
        </mxCell>
        <mxCell id="aesW-jCNYoVFo7ENcaNy-9" value="" style="endArrow=none;html=1;rounded=0;exitX=0.5;exitY=0;exitDx=0;exitDy=0;entryX=0.5;entryY=1;entryDx=0;entryDy=0;" edge="1" parent="1" source="aesW-jCNYoVFo7ENcaNy-6" target="aesW-jCNYoVFo7ENcaNy-5">
          <mxGeometry width="50" height="50" relative="1" as="geometry">
            <mxPoint x="360" y="250" as="sourcePoint" />
            <mxPoint x="410" y="200" as="targetPoint" />
          </mxGeometry>
        </mxCell>
        <mxCell id="aesW-jCNYoVFo7ENcaNy-11" value="" style="endArrow=none;html=1;rounded=0;entryX=0;entryY=0;entryDx=0;entryDy=0;" edge="1" parent="1" source="aesW-jCNYoVFo7ENcaNy-1" target="aesW-jCNYoVFo7ENcaNy-6">
          <mxGeometry width="50" height="50" relative="1" as="geometry">
            <mxPoint x="360" y="250" as="sourcePoint" />
            <mxPoint x="410" y="200" as="targetPoint" />
          </mxGeometry>
        </mxCell>
        <mxCell id="aesW-jCNYoVFo7ENcaNy-12" value="" style="endArrow=none;html=1;rounded=0;exitX=0.5;exitY=0;exitDx=0;exitDy=0;" edge="1" parent="1" source="aesW-jCNYoVFo7ENcaNy-2">
          <mxGeometry width="50" height="50" relative="1" as="geometry">
            <mxPoint x="360" y="250" as="sourcePoint" />
            <mxPoint x="240" y="200" as="targetPoint" />
          </mxGeometry>
        </mxCell>
        <mxCell id="aesW-jCNYoVFo7ENcaNy-13" value="" style="endArrow=none;html=1;rounded=0;exitX=0.695;exitY=0.013;exitDx=0;exitDy=0;exitPerimeter=0;entryX=0;entryY=0.75;entryDx=0;entryDy=0;" edge="1" parent="1" source="aesW-jCNYoVFo7ENcaNy-4" target="aesW-jCNYoVFo7ENcaNy-6">
          <mxGeometry width="50" height="50" relative="1" as="geometry">
            <mxPoint x="360" y="250" as="sourcePoint" />
            <mxPoint x="410" y="200" as="targetPoint" />
          </mxGeometry>
        </mxCell>
        <mxCell id="aesW-jCNYoVFo7ENcaNy-14" value="jumlah pembelian" style="ellipse;whiteSpace=wrap;html=1;" vertex="1" parent="1">
          <mxGeometry x="470" y="60" width="60" height="55" as="geometry" />
        </mxCell>
        <mxCell id="aesW-jCNYoVFo7ENcaNy-17" value="tanggal pembelian" style="ellipse;whiteSpace=wrap;html=1;" vertex="1" parent="1">
          <mxGeometry x="230" y="255" width="90" height="50" as="geometry" />
        </mxCell>
        <mxCell id="aesW-jCNYoVFo7ENcaNy-18" value="produk" style="rounded=0;whiteSpace=wrap;html=1;" vertex="1" parent="1">
          <mxGeometry x="570" y="155" width="100" height="50" as="geometry" />
        </mxCell>
        <mxCell id="aesW-jCNYoVFo7ENcaNy-19" value="judul produk" style="ellipse;whiteSpace=wrap;html=1;" vertex="1" parent="1">
          <mxGeometry x="570" y="25" width="90" height="60" as="geometry" />
        </mxCell>
        <mxCell id="aesW-jCNYoVFo7ENcaNy-20" value="deskripsi produk" style="ellipse;whiteSpace=wrap;html=1;" vertex="1" parent="1">
          <mxGeometry x="565" y="245" width="75" height="60" as="geometry" />
        </mxCell>
        <mxCell id="aesW-jCNYoVFo7ENcaNy-21" value="harga produk" style="ellipse;whiteSpace=wrap;html=1;" vertex="1" parent="1">
          <mxGeometry x="680" y="70" width="80" height="50" as="geometry" />
        </mxCell>
        <mxCell id="aesW-jCNYoVFo7ENcaNy-22" value="" style="endArrow=none;html=1;rounded=0;exitX=1;exitY=0.75;exitDx=0;exitDy=0;entryX=0;entryY=0.5;entryDx=0;entryDy=0;" edge="1" parent="1" source="aesW-jCNYoVFo7ENcaNy-6">
          <mxGeometry width="50" height="50" relative="1" as="geometry">
            <mxPoint x="360" y="250" as="sourcePoint" />
            <mxPoint x="380" y="180" as="targetPoint" />
          </mxGeometry>
        </mxCell>
        <mxCell id="aesW-jCNYoVFo7ENcaNy-23" value="" style="endArrow=none;html=1;rounded=0;entryX=0;entryY=0.5;entryDx=0;entryDy=0;exitX=1;exitY=0.5;exitDx=0;exitDy=0;" edge="1" parent="1" source="aesW-jCNYoVFo7ENcaNy-29" target="aesW-jCNYoVFo7ENcaNy-18">
          <mxGeometry width="50" height="50" relative="1" as="geometry">
            <mxPoint x="500" y="180" as="sourcePoint" />
            <mxPoint x="410" y="200" as="targetPoint" />
          </mxGeometry>
        </mxCell>
        <mxCell id="aesW-jCNYoVFo7ENcaNy-24" value="" style="endArrow=none;html=1;rounded=0;entryX=0;entryY=0.5;entryDx=0;entryDy=0;exitX=0.5;exitY=0;exitDx=0;exitDy=0;" edge="1" parent="1" source="aesW-jCNYoVFo7ENcaNy-29" target="aesW-jCNYoVFo7ENcaNy-14">
          <mxGeometry width="50" height="50" relative="1" as="geometry">
            <mxPoint x="440" y="140" as="sourcePoint" />
            <mxPoint x="476" y="92.65999999999997" as="targetPoint" />
          </mxGeometry>
        </mxCell>
        <mxCell id="aesW-jCNYoVFo7ENcaNy-25" value="" style="endArrow=none;html=1;rounded=0;exitX=0.573;exitY=-0.048;exitDx=0;exitDy=0;exitPerimeter=0;" edge="1" parent="1" source="aesW-jCNYoVFo7ENcaNy-17" target="aesW-jCNYoVFo7ENcaNy-29">
          <mxGeometry width="50" height="50" relative="1" as="geometry">
            <mxPoint x="360" y="250" as="sourcePoint" />
            <mxPoint x="440" y="220" as="targetPoint" />
          </mxGeometry>
        </mxCell>
        <mxCell id="aesW-jCNYoVFo7ENcaNy-26" value="" style="endArrow=none;html=1;rounded=0;entryX=0.308;entryY=0.933;entryDx=0;entryDy=0;entryPerimeter=0;exitX=0.607;exitY=-0.007;exitDx=0;exitDy=0;exitPerimeter=0;" edge="1" parent="1" source="aesW-jCNYoVFo7ENcaNy-18" target="aesW-jCNYoVFo7ENcaNy-21">
          <mxGeometry width="50" height="50" relative="1" as="geometry">
            <mxPoint x="360" y="250" as="sourcePoint" />
            <mxPoint x="410" y="200" as="targetPoint" />
          </mxGeometry>
        </mxCell>
        <mxCell id="aesW-jCNYoVFo7ENcaNy-27" value="" style="endArrow=none;html=1;rounded=0;entryX=0.5;entryY=1;entryDx=0;entryDy=0;exitX=0.5;exitY=0;exitDx=0;exitDy=0;" edge="1" parent="1" source="aesW-jCNYoVFo7ENcaNy-18" target="aesW-jCNYoVFo7ENcaNy-19">
          <mxGeometry width="50" height="50" relative="1" as="geometry">
            <mxPoint x="360" y="250" as="sourcePoint" />
            <mxPoint x="410" y="200" as="targetPoint" />
          </mxGeometry>
        </mxCell>
        <mxCell id="aesW-jCNYoVFo7ENcaNy-28" value="" style="endArrow=none;html=1;rounded=0;entryX=0.5;entryY=1;entryDx=0;entryDy=0;exitX=0.5;exitY=0;exitDx=0;exitDy=0;" edge="1" parent="1" source="aesW-jCNYoVFo7ENcaNy-20" target="aesW-jCNYoVFo7ENcaNy-18">
          <mxGeometry width="50" height="50" relative="1" as="geometry">
            <mxPoint x="360" y="250" as="sourcePoint" />
            <mxPoint x="410" y="200" as="targetPoint" />
          </mxGeometry>
        </mxCell>
        <mxCell id="aesW-jCNYoVFo7ENcaNy-29" value="membeli" style="rhombus;whiteSpace=wrap;html=1;" vertex="1" parent="1">
          <mxGeometry x="350" y="140" width="110" height="80" as="geometry" />
        </mxCell>
        <mxCell id="aesW-jCNYoVFo7ENcaNy-31" value="nama lengkap" style="ellipse;whiteSpace=wrap;html=1;" vertex="1" parent="1">
          <mxGeometry x="250" y="55" width="70" height="45" as="geometry" />
        </mxCell>
        <mxCell id="aesW-jCNYoVFo7ENcaNy-32" value="" style="endArrow=none;html=1;rounded=0;entryX=1.01;entryY=0.748;entryDx=0;entryDy=0;entryPerimeter=0;exitX=0.5;exitY=0;exitDx=0;exitDy=0;" edge="1" parent="1" source="aesW-jCNYoVFo7ENcaNy-31" target="aesW-jCNYoVFo7ENcaNy-3">
          <mxGeometry width="50" height="50" relative="1" as="geometry">
            <mxPoint x="360" y="250" as="sourcePoint" />
            <mxPoint x="410" y="200" as="targetPoint" />
          </mxGeometry>
        </mxCell>
        <mxCell id="aesW-jCNYoVFo7ENcaNy-33" value="id pembelian" style="ellipse;whiteSpace=wrap;html=1;" vertex="1" parent="1">
          <mxGeometry x="320" y="20" width="80" height="40" as="geometry" />
        </mxCell>
        <mxCell id="aesW-jCNYoVFo7ENcaNy-34" value="" style="endArrow=none;html=1;rounded=0;entryX=0.5;entryY=1;entryDx=0;entryDy=0;exitX=0.174;exitY=0.283;exitDx=0;exitDy=0;exitPerimeter=0;" edge="1" parent="1" source="aesW-jCNYoVFo7ENcaNy-29" target="aesW-jCNYoVFo7ENcaNy-33">
          <mxGeometry width="50" height="50" relative="1" as="geometry">
            <mxPoint x="360" y="250" as="sourcePoint" />
            <mxPoint x="410" y="200" as="targetPoint" />
          </mxGeometry>
        </mxCell>
        <mxCell id="aesW-jCNYoVFo7ENcaNy-35" value="pembeli_id" style="ellipse;whiteSpace=wrap;html=1;" vertex="1" parent="1">
          <mxGeometry x="410" y="12.5" width="70" height="40" as="geometry" />
        </mxCell>
        <mxCell id="aesW-jCNYoVFo7ENcaNy-36" value="" style="endArrow=none;html=1;rounded=0;exitX=0.5;exitY=0;exitDx=0;exitDy=0;entryX=0.4;entryY=1.038;entryDx=0;entryDy=0;entryPerimeter=0;" edge="1" parent="1" source="aesW-jCNYoVFo7ENcaNy-29" target="aesW-jCNYoVFo7ENcaNy-35">
          <mxGeometry width="50" height="50" relative="1" as="geometry">
            <mxPoint x="360" y="250" as="sourcePoint" />
            <mxPoint x="440" y="60" as="targetPoint" />
          </mxGeometry>
        </mxCell>
        <mxCell id="aesW-jCNYoVFo7ENcaNy-37" style="edgeStyle=orthogonalEdgeStyle;rounded=0;orthogonalLoop=1;jettySize=auto;html=1;exitX=-0.01;exitY=0.655;exitDx=0;exitDy=0;entryX=-0.029;entryY=0.703;entryDx=0;entryDy=0;entryPerimeter=0;exitPerimeter=0;" edge="1" parent="1" source="aesW-jCNYoVFo7ENcaNy-14" target="aesW-jCNYoVFo7ENcaNy-14">
          <mxGeometry relative="1" as="geometry" />
        </mxCell>
        <mxCell id="aesW-jCNYoVFo7ENcaNy-38" value="penilaian" style="rounded=0;whiteSpace=wrap;html=1;" vertex="1" parent="1">
          <mxGeometry x="360" y="350" width="100" height="60" as="geometry" />
        </mxCell>
        <mxCell id="aesW-jCNYoVFo7ENcaNy-39" value="" style="endArrow=none;html=1;rounded=0;entryX=0.5;entryY=1;entryDx=0;entryDy=0;exitX=0.44;exitY=-0.011;exitDx=0;exitDy=0;exitPerimeter=0;" edge="1" parent="1" source="aesW-jCNYoVFo7ENcaNy-38" target="aesW-jCNYoVFo7ENcaNy-29">
          <mxGeometry width="50" height="50" relative="1" as="geometry">
            <mxPoint x="410" y="340" as="sourcePoint" />
            <mxPoint x="410" y="200" as="targetPoint" />
          </mxGeometry>
        </mxCell>
        <mxCell id="aesW-jCNYoVFo7ENcaNy-40" value="nilai_produk" style="ellipse;whiteSpace=wrap;html=1;" vertex="1" parent="1">
          <mxGeometry x="350" y="530" width="90" height="60" as="geometry" />
        </mxCell>
        <mxCell id="aesW-jCNYoVFo7ENcaNy-41" value="id_penilaian" style="ellipse;whiteSpace=wrap;html=1;" vertex="1" parent="1">
          <mxGeometry x="225" y="480" width="105" height="60" as="geometry" />
        </mxCell>
        <mxCell id="aesW-jCNYoVFo7ENcaNy-43" value="pembelian_id" style="ellipse;whiteSpace=wrap;html=1;" vertex="1" parent="1">
          <mxGeometry x="460" y="480" width="90" height="60" as="geometry" />
        </mxCell>
        <mxCell id="aesW-jCNYoVFo7ENcaNy-44" value="" style="endArrow=none;html=1;rounded=0;entryX=0.5;entryY=1;entryDx=0;entryDy=0;exitX=0.5;exitY=0;exitDx=0;exitDy=0;" edge="1" parent="1" source="aesW-jCNYoVFo7ENcaNy-40" target="aesW-jCNYoVFo7ENcaNy-38">
          <mxGeometry width="50" height="50" relative="1" as="geometry">
            <mxPoint x="360" y="540" as="sourcePoint" />
            <mxPoint x="410" y="490" as="targetPoint" />
          </mxGeometry>
        </mxCell>
        <mxCell id="aesW-jCNYoVFo7ENcaNy-45" value="" style="endArrow=none;html=1;rounded=0;entryX=0.087;entryY=1.078;entryDx=0;entryDy=0;entryPerimeter=0;exitX=0.765;exitY=-0.033;exitDx=0;exitDy=0;exitPerimeter=0;" edge="1" parent="1" source="aesW-jCNYoVFo7ENcaNy-41" target="aesW-jCNYoVFo7ENcaNy-38">
          <mxGeometry width="50" height="50" relative="1" as="geometry">
            <mxPoint x="360" y="540" as="sourcePoint" />
            <mxPoint x="410" y="490" as="targetPoint" />
          </mxGeometry>
        </mxCell>
        <mxCell id="aesW-jCNYoVFo7ENcaNy-46" value="" style="endArrow=none;html=1;rounded=0;entryX=0.9;entryY=1;entryDx=0;entryDy=0;entryPerimeter=0;exitX=0.5;exitY=0;exitDx=0;exitDy=0;" edge="1" parent="1" source="aesW-jCNYoVFo7ENcaNy-43" target="aesW-jCNYoVFo7ENcaNy-38">
          <mxGeometry width="50" height="50" relative="1" as="geometry">
            <mxPoint x="360" y="540" as="sourcePoint" />
            <mxPoint x="410" y="490" as="targetPoint" />
          </mxGeometry>
        </mxCell>
        <mxCell id="aesW-jCNYoVFo7ENcaNy-47" value="id_pembeli" style="ellipse;whiteSpace=wrap;html=1;" vertex="1" parent="1">
          <mxGeometry x="40" y="250" width="80" height="50" as="geometry" />
        </mxCell>
        <mxCell id="aesW-jCNYoVFo7ENcaNy-49" value="" style="endArrow=none;html=1;rounded=0;entryX=0;entryY=1;entryDx=0;entryDy=0;exitX=0.808;exitY=0;exitDx=0;exitDy=0;exitPerimeter=0;" edge="1" parent="1" source="aesW-jCNYoVFo7ENcaNy-47" target="aesW-jCNYoVFo7ENcaNy-6">
          <mxGeometry width="50" height="50" relative="1" as="geometry">
            <mxPoint x="360" y="240" as="sourcePoint" />
            <mxPoint x="410" y="190" as="targetPoint" />
          </mxGeometry>
        </mxCell>
      </root>
    </mxGraphModel>
  </diagram>
</mxfile>
